<svg xmlns="http://www.w3.org/2000/svg" xmlns:xlink="http://www.w3.org/1999/xlink" width="922.44" height="425.552" viewBox="0 0 922.44 425.552">
  <defs>
    <linearGradient id="linear-gradient" x1="0.5" y1="1" x2="0.5" gradientUnits="objectBoundingBox">
      <stop offset="0" stop-color="gray" stop-opacity="0.251"/>
      <stop offset="0.54" stop-color="gray" stop-opacity="0.122"/>
      <stop offset="1" stop-color="gray" stop-opacity="0.102"/>
    </linearGradient>
    <linearGradient id="linear-gradient-2" x1="0" y1="0.5" x2="1" y2="0.5" xlink:href="#linear-gradient"/>
  </defs>
  <g id="undraw_responsive_6c8s" transform="translate(0 -3)">
    <rect id="Rectangle_2" data-name="Rectangle 2" width="156" height="92" transform="translate(383.22 311.022)" fill="#bdbdbd"/>
    <g id="Group_3" data-name="Group 3" transform="translate(382.72 321.986)" opacity="0.1">
      <path id="Path_2" data-name="Path 2" d="M525.07,579H675.24c1.81-7.87,3.26-13,3.26-13h-157S523.11,571.11,525.07,579Z" transform="translate(-521.5 -566)"/>
    </g>
    <path id="Path_3" data-name="Path 3" d="M234.337,3H688.1c8.073,0,14.617,7.208,14.617,16.1V327h-483V19.1c0-8.892,6.544-16.1,14.617-16.1Z" fill="#868695"/>
    <path id="Path_4" data-name="Path 4" d="M802.383,576H348.617C340.544,576,334,568.792,334,559.9V526H817v33.9C817,568.792,810.456,576,802.383,576Z" transform="translate(-114.28 -242.391)" fill="#bdbdbd"/>
    <circle id="Ellipse_5" data-name="Ellipse 5" cx="9" cy="9" r="9" transform="translate(452.22 300.495)" fill="#535461"/>
    <path id="Path_5" data-name="Path 5" d="M399.89,436H571.55a8.17,8.17,0,0,1,8.17,8.17V456h-188V444.17A8.17,8.17,0,0,1,399.89,436Z" transform="translate(-24.5 -59.978)" fill="#bdbdbd"/>
    <g id="Group_4" data-name="Group 4" transform="translate(296.22 71.12)" opacity="0.5">
      <rect id="Rectangle_3" data-name="Rectangle 3" width="330" height="187.76" rx="4.5" fill="url(#linear-gradient)"/>
    </g>
    <rect id="Rectangle_4" data-name="Rectangle 4" width="321.54" height="183.96" rx="4.5" transform="translate(300.45 72.5)" fill="#fff"/>
    <g id="Group_5" data-name="Group 5" transform="translate(392.82 94.589)" opacity="0.5">
      <rect id="Rectangle_5" data-name="Rectangle 5" width="35.44" height="31.9" rx="4.5" fill="#98c1d9"/>
    </g>
    <rect id="Rectangle_6" data-name="Rectangle 6" width="95.69" height="3.54" rx="1.77" transform="translate(435.286 94.589)" fill="#e0e0e0"/>
    <rect id="Rectangle_7" data-name="Rectangle 7" width="79.54" height="3.54" rx="1.77" transform="translate(435.286 103.949)" fill="#e0e0e0"/>
    <g id="Group_6" data-name="Group 6" transform="translate(392.82 140.009)" opacity="0.5">
      <rect id="Rectangle_8" data-name="Rectangle 8" width="35.44" height="31.9" rx="4.5" fill="#98c1d9"/>
    </g>
    <rect id="Rectangle_9" data-name="Rectangle 9" width="95.69" height="3.54" rx="1.77" transform="translate(434.48 140.009)" fill="#e0e0e0"/>
    <rect id="Rectangle_10" data-name="Rectangle 10" width="95.69" height="3.54" rx="1.77" transform="translate(434.48 149.369)" fill="#e0e0e0"/>
    <g id="Group_7" data-name="Group 7" transform="translate(392.82 185.428)" opacity="0.5">
      <rect id="Rectangle_11" data-name="Rectangle 11" width="35.44" height="31.9" rx="4.5" fill="#98c1d9"/>
    </g>
    <rect id="Rectangle_12" data-name="Rectangle 12" width="95.69" height="3.54" rx="1.77" transform="translate(435.286 194.788)" fill="#e0e0e0"/>
    <rect id="Rectangle_13" data-name="Rectangle 13" width="96.33" height="3.54" rx="1.59" transform="translate(434.646 185.428)" fill="#e0e0e0"/>
    <g id="Group_8" data-name="Group 8" transform="translate(383.69 375.522)" opacity="0.1">
      <rect id="Rectangle_14" data-name="Rectangle 14" width="156" height="3"/>
    </g>
    <g id="Group_9" data-name="Group 9" transform="translate(17.722 115.535)" opacity="0.7">
      <path id="Path_6" data-name="Path 6" d="M293.48,566.06h-72.4l1-8.14c20.46-18.37,33.69-67.31,33.69-67.31a6.771,6.771,0,0,0-.87.18c-12,2.42-20.54,7.35-26.51,13.28l2.54-21.66c37.8-8.14,52.79-58.14,52.79-58.14-24.12,5.35-39.16,13.63-48.5,21.49l3.72-31.82c25.56,8.77,52-37.82,52-37.82l-1-.21.5-.32-.76.27c-28.25-6.09-43.35,10.06-48.25,16.77l.37-3.12q-1.12,3-2.18,5.88h0v.08q-3,8.13-5.49,16.06h0q-2.17,6.77-4.06,13.4v-.06s-1.17-28.46-31.18-35.95c0,0,3.15,62.07,26.93,51.91h0c-2.2,9-4,17.66-5.56,26.07h0q-1.49,8.21-2.6,16l-.14.16.14-.12-.06.41h0q-1,7.07-1.7,13.78c.46-8.62-1.11-33.52-30.45-56.92,0,0-39,68.54,27.5,82l.44.38-.1-.31.6.13.27-3.52a369.4,369.4,0,0,0,.23,44.1h0c.07,1,.14,2,.21,2.95H141.37c-27.94,57.79,15.52,89.46,15.52,89.46h120C323.49,596.66,293.48,566.06,293.48,566.06Zm-78-65.68Z" transform="translate(-132.002 -374.513)" fill="url(#linear-gradient-2)"/>
    </g>
    <path id="Path_7" data-name="Path 7" d="M217,588s-19-83,23-190" transform="translate(-114.28 -237.255)" fill="none" stroke="#535461" stroke-miterlimit="10" stroke-width="3" opacity="0.6"/>
    <path id="Path_8" data-name="Path 8" d="M143,563H290s29,37-16,92H158S116,617,143,563Z" transform="translate(-114.28 -258.978)" fill="#e0fbfc"/>
    <path id="Path_9" data-name="Path 9" d="M237.89,403.5s14.61-26,49.61-18c0,0-28.93,49.26-55,33.13Z" transform="translate(-114.28 -222.905)" fill="#4db6ac"/>
    <path id="Path_10" data-name="Path 10" d="M228.63,431.09S227.5,404.5,198.5,397.5c0,0,3,58,26,48.5Z" transform="translate(-114.28 -225.314)" fill="#4db6ac"/>
    <path id="Path_11" data-name="Path 11" d="M219.15,470.36s5.35-27.86,61.35-39.86c0,0-17.86,57.62-63.93,55.31Z" transform="translate(-114.28 -230.089)" fill="#4db6ac"/>
    <path id="Path_12" data-name="Path 12" d="M214.61,501.63s5.89-29.13-29.11-56.13c0,0-38,64.67,27.48,76.83Z" transform="translate(-114.28 -233.773)" fill="#4db6ac"/>
    <path id="Path_13" data-name="Path 13" d="M213.56,541.67S209.5,500.5,253.5,492.5c0,0-16.07,57.49-40,67.74Z" transform="translate(-114.28 -239.537)" fill="#4db6ac"/>
    <path id="Path_14" data-name="Path 14" d="M233,419s38-29,54-34" transform="translate(-114.28 -222.837)" fill="none" stroke="#535461" stroke-miterlimit="10" stroke-width="1" opacity="0.3"/>
    <path id="Path_15" data-name="Path 15" d="M216.5,485.5s46-49,64-55" transform="translate(-114.28 -230.062)" fill="none" stroke="#535461" stroke-miterlimit="10" stroke-width="1" opacity="0.3"/>
    <path id="Path_16" data-name="Path 16" d="M198.5,397.5s28,38,26,48" transform="translate(-114.28 -225.224)" fill="none" stroke="#535461" stroke-miterlimit="10" stroke-width="1" opacity="0.3"/>
    <path id="Path_17" data-name="Path 17" d="M185.5,445.5s15,68,27,77" transform="translate(-114.28 -233.787)" fill="none" stroke="#535461" stroke-miterlimit="10" stroke-width="1" opacity="0.3"/>
    <path id="Path_18" data-name="Path 18" d="M213.5,560.5s24-66,40-68" transform="translate(-114.28 -239.561)" fill="none" stroke="#535461" stroke-miterlimit="10" stroke-width="1" opacity="0.3"/>
    <g id="Group_10" data-name="Group 10" transform="translate(27.72 304.022)" opacity="0.1">
      <path id="Path_19" data-name="Path 19" d="M290,563H143c-.33.67-.65,1.34-1,2H285s28.29,36.11-14.4,90H274C319,600,290,563,290,563Z" transform="translate(-142 -563)"/>
    </g>
    <rect id="Rectangle_15" data-name="Rectangle 15" width="922.44" height="32.93" transform="translate(0 395.622)" fill="#fff"/>
    <line id="Line_9" data-name="Line 9" x2="6" transform="translate(655.188 148.368)" stroke="#6c63ff" stroke-miterlimit="10" stroke-width="2"/>
    <rect id="Rectangle_19" data-name="Rectangle 19" width="16" height="44" transform="translate(786.72 251.169)" fill="#3d5a80"/>
    <rect id="Rectangle_20" data-name="Rectangle 20" width="16" height="100" transform="translate(808.72 269.022)" fill="#535461"/>
    <rect id="Rectangle_21" data-name="Rectangle 21" width="16" height="33" transform="translate(808.72 258.146)" fill="#98c1d9"/>
    <rect id="Rectangle_22" data-name="Rectangle 22" width="16" height="100" transform="translate(835.72 286.022)" fill="#535461"/>
    <rect id="Rectangle_23" data-name="Rectangle 23" width="16" height="33" transform="translate(835.72 272.972)" fill="#ee6c4d"/>
    <path id="Path_21" data-name="Path 21" d="M821.72,352h92v79.5a23.5,23.5,0,0,1-23.5,23.5h-45a23.5,23.5,0,0,1-23.5-23.5Z" transform="translate(-49 -59.978)" fill="#e0fbfc"/>
    <g id="Group_12" data-name="Group 12" transform="translate(772.72 292.022)" opacity="0.1">
      <path id="Path_22" data-name="Path 22" d="M936,551v4h88v79.5a23.39,23.39,0,0,1-5,14.49,23.45,23.45,0,0,0,9-18.49V551Z" transform="translate(-936 -551)"/>
    </g>
  </g>
</svg>
